# xmcd
#
# Track frame offsets:
#   150
#   18866
#   28989
#   39200
#   56219
#   80599
#   90863
#   103813
#   121974
#   132126
#   150497
#   166045
#   178009
#   192221
#   208480
#   219939
#   234096
#   248784
#
# Disc length: 3526 seconds
#
# Revision: 0
# Processed by: cddbd v1.5PL3 Copyright (c) Steve Scherf et al.
# Submitted via: Media_Universe 3.0
#
DISCID=e30dc412
DTITLE=Toby Keith - Shockin' Y'All and Mixed
DYEAR=2004
DGENRE=Country
TTITLE0=I Love This Bar
TTITLE1=Whiskey Girl
TTITLE2=American Soldier
TTITLE3=If I Was Jesus
TTITLE4=Time For Me To Ride
TTITLE5=Sweet
TTITLE6=Don't Leave I Think I Love  You
TTITLE7=Nights I Can't Remember, Friends I'll Never Forget
TTITLE8=Baddest Boots
TTITLE9=Critic
TTITLE10=Taliban Song
TTITLE11=Weed With Willie
TTITLE12=When Love Fades
TTITLE13=Heart To Heart
TTITLE14=She Only Gets That Way With Me
TTITLE15=Die With Your Boots On
TTITLE16=I Know A Wall When I See One
TTITLE17=How Do You Like Me Now
EXTD=
EXTT0=
EXTT1=
EXTT2=
EXTT3=
EXTT4=
EXTT5=
EXTT6=
EXTT7=
EXTT8=
EXTT9=
EXTT10=
EXTT11=
EXTT12=
EXTT13=
EXTT14=
EXTT15=
EXTT16=
EXTT17=
PLAYORDER=
